name analog
datacolumns 19
datarows 46
range 0.4935 0.516
endheader
time	ground_force_vx	ground_force_vy	ground_force_vz	ground_force_px	ground_force_py	ground_force_pz	l_ground_force_vx	l_ground_force_vy	l_ground_force_vz	l_ground_force_px	l_ground_force_py	l_ground_force_pz	ground_torque_x	ground_torque_y	ground_torque_z	l_ground_torque_x	l_ground_torque_y	l_ground_torque_z
0.4935	-0.0	-0.0	-0.0	-0.0	-0.0	-0.0	3.9172286987304688	6.080303192138672	-636.74267578125	-0.0	-0.0	-0.0	-0.0	-0.0	-0.0	177473.59375	-33594.2421875	-1560.1986083984375
0.494	-0.0	-0.0	-0.0	-0.0	-0.0	-0.0	3.603947401046753	5.964420318603516	-638.139892578125	-0.0	-0.0	-0.0	-0.0	-0.0	-0.0	177710.1875	-33923.83984375	-1499.505859375
0.4945	-0.0	-0.0	-0.0	-0.0	-0.0	-0.0	4.360641479492188	6.155013084411621	-638.0860595703125	-0.0	-0.0	-0.0	-0.0	-0.0	-0.0	177730.46875	-33976.58984375	-1455.442626953125
0.495	-0.0	-0.0	-0.0	-0.0	-0.0	-0.0	5.575037002563477	6.447483062744141	-637.713134765625	-0.0	-0.0	-0.0	-0.0	-0.0	-0.0	177967.71875	-34442.09765625	-1203.524169921875
0.4955	-0.0	-0.0	-0.0	-0.0	-0.0	-0.0	6.591928482055664	6.957118511199951	-639.4306030273438	-0.0	-0.0	-0.0	-0.0	-0.0	-0.0	178438.265625	-34774.65625	-851.55517578125
0.496	-0.0	-0.0	-0.0	-0.0	-0.0	-0.0	7.4517059326171875	7.745223999023437	-640.0484008789062	-0.0	-0.0	-0.0	-0.0	-0.0	-0.0	178491.546875	-34776.2578125	-707.0440063476562
0.4965	-0.0	-0.0	-0.0	-0.0	-0.0	-0.0	7.526885032653809	7.704946041107178	-638.1958618164062	-0.0	-0.0	-0.0	-0.0	-0.0	-0.0	178213.734375	-34848.58203125	-334.57916259765625
0.497	-0.0	-0.0	-0.0	-0.0	-0.0	-0.0	7.341557025909424	7.079130172729492	-636.672119140625	-0.0	-0.0	-0.0	-0.0	-0.0	-0.0	177241.375	-34608.87890625	-383.1121520996094
0.4975	-0.0	-0.0	-0.0	-0.0	-0.0	-0.0	6.36039400100708	6.624126434326172	-630.9169921875	-0.0	-0.0	-0.0	-0.0	-0.0	-0.0	176338.265625	-34019.30078125	-541.1802978515625
0.498	-0.0	-0.0	-0.0	-0.0	-0.0	-0.0	5.566648960113525	6.385676383972168	-629.7122802734375	-0.0	-0.0	-0.0	-0.0	-0.0	-0.0	175238.25	-33699.76171875	-731.5673217773438
0.4985	-0.0	-0.0	-0.0	-0.0	-0.0	-0.0	5.003512859344482	6.297224521636963	-626.43017578125	-0.0	-0.0	-0.0	-0.0	-0.0	-0.0	174636.8125	-33560.2109375	-880.3323364257812
0.499	-0.0	-0.0	-0.0	-0.0	-0.0	-0.0	4.728031635284424	6.045241355895996	-623.1458740234375	-0.0	-0.0	-0.0	-0.0	-0.0	-0.0	173849.09375	-33102.4453125	-576.3479614257812
0.4995	-0.0	-0.0	-0.0	-0.0	-0.0	-0.0	4.612960815429688	6.081151008605957	-622.9777221679688	-0.0	-0.0	-0.0	-0.0	-0.0	-0.0	173626.875	-32348.216796875	-707.111572265625
0.5	-0.0	-0.0	-0.0	-0.0	-0.0	-0.0	4.396421909332275	6.486429214477539	-621.1407470703125	-0.0	-0.0	-0.0	-0.0	-0.0	-0.0	173358.6875	-32067.779296875	-681.8587646484375
0.5005000000000001	-0.0	-0.0	-0.0	-0.0	-0.0	-0.0	3.07893967628479	6.82659387588501	-621.8309326171875	-0.0	-0.0	-0.0	-0.0	-0.0	-0.0	173143.984375	-31567.189453125	-1092.953369140625
0.501	-0.0	-0.0	-0.0	-0.0	-0.0	-0.0	1.759793758392334	6.599979877471924	-621.3944091796875	-0.0	-0.0	-0.0	-0.0	-0.0	-0.0	173400.78125	-31074.330078125	-1242.9619140625
0.5015000000000001	-0.0	-0.0	-0.0	-0.0	-0.0	-0.0	0.5055238008499146	6.8124613761901855	-622.7393188476562	-0.0	-0.0	-0.0	-0.0	-0.0	-0.0	173549.734375	-30371.119140625	-1582.9730224609375
0.502	-0.0	-0.0	-0.0	-0.0	-0.0	-0.0	-1.051777720451355	6.611430644989014	-623.5848388671875	-0.0	-0.0	-0.0	-0.0	-0.0	-0.0	173589.984375	-29659.224609375	-1791.703369140625
0.5025000000000001	-0.0	-0.0	-0.0	-0.0	-0.0	-0.0	-1.457414150238037	6.258162021636963	-621.888916015625	-0.0	-0.0	-0.0	-0.0	-0.0	-0.0	173617.5625	-29258.02734375	-1813.1937255859373
0.503	-0.0	-0.0	-0.0	-0.0	-0.0	-0.0	-1.7107391357421875	5.576438903808594	-619.6944580078125	-0.0	-0.0	-0.0	-0.0	-0.0	-0.0	172927.75	-28649.201171875	-1898.2987060546875
0.5035000000000001	-0.0	-0.0	-0.0	-0.0	-0.0	-0.0	-2.3180885314941406	5.16103982925415	-619.6454467773438	-0.0	-0.0	-0.0	-0.0	-0.0	-0.0	172394.0625	-27993.359375	-1996.21484375
0.504	-0.0	-0.0	-0.0	-0.0	-0.0	-0.0	-3.7771341800689697	4.101431846618652	-618.6475830078125	-0.0	-0.0	-0.0	-0.0	-0.0	-0.0	172187.859375	-27542.64453125	-2196.783203125
0.5045000000000001	-0.0	-0.0	-0.0	-0.0	-0.0	-0.0	-3.94049334526062	3.2431986331939697	-617.300048828125	-0.0	-0.0	-0.0	-0.0	-0.0	-0.0	171933.34375	-27153.0859375	-2226.781494140625
0.505	-0.0	-0.0	-0.0	-0.0	-0.0	-0.0	-4.107761859893799	3.292452335357666	-615.9519653320312	-0.0	-0.0	-0.0	-0.0	-0.0	-0.0	171561.359375	-26838.001953125	-2184.856201171875
0.5055000000000001	-0.0	-0.0	-0.0	-0.0	-0.0	-0.0	-4.080696105957031	3.5939254760742188	-615.2052001953125	-0.0	-0.0	-0.0	-0.0	-0.0	-0.0	171478.1875	-26852.740234375	-2133.698974609375
0.506	-0.0	-0.0	-0.0	-0.0	-0.0	-0.0	-3.903274536132813	4.010885715484619	-615.5543212890625	-0.0	-0.0	-0.0	-0.0	-0.0	-0.0	171368.765625	-26668.173828125	-2116.056396484375
0.5065000000000001	-0.0	-0.0	-0.0	-0.0	-0.0	-0.0	-2.6976983547210693	4.8335490226745605	-615.3960571289062	-0.0	-0.0	-0.0	-0.0	-0.0	-0.0	171559.96875	-27085.21875	-1895.1348876953125
0.507	-0.0	-0.0	-0.0	-0.0	-0.0	-0.0	-1.5726850032806396	5.604581356048584	-614.6017456054688	-0.0	-0.0	-0.0	-0.0	-0.0	-0.0	171354.5	-26795.68359375	-1396.488037109375
0.5075000000000001	-0.0	-0.0	-0.0	-0.0	-0.0	-0.0	-0.5442419648170471	5.335075378417969	-613.8748779296875	-0.0	-0.0	-0.0	-0.0	-0.0	-0.0	171033.25	-26908.55078125	-1197.60888671875
0.508	-0.0	-0.0	-0.0	-0.0	-0.0	-0.0	1.0115610361099243	5.829231262207031	-611.0362548828125	-0.0	-0.0	-0.0	-0.0	-0.0	-0.0	170238.453125	-27121.998046875	-747.3689575195312
0.5085000000000001	-0.0	-0.0	-0.0	-0.0	-0.0	-0.0	2.0345447063446045	5.92934513092041	-604.8932495117188	-0.0	-0.0	-0.0	-0.0	-0.0	-0.0	168855.296875	-27043.736328125	-319.3909606933594
0.509	-0.0	-0.0	-0.0	-0.0	-0.0	-0.0	3.4416096210479736	5.840946197509766	-596.3972778320312	-0.0	-0.0	-0.0	-0.0	-0.0	-0.0	166874.0	-26875.09765625	156.1861114501953
0.5095000000000001	-0.0	-0.0	-0.0	-0.0	-0.0	-0.0	4.529164791107178	5.905900955200195	-591.9768676757812	-0.0	-0.0	-0.0	-0.0	-0.0	-0.0	164948.0	-26785.427734375	505.0964965820313
0.51	-0.0	-0.0	-0.0	-0.0	-0.0	-0.0	5.315330028533936	5.664164543151856	-583.1747436523438	-0.0	-0.0	-0.0	-0.0	-0.0	-0.0	163014.59375	-26041.572265625	776.4840698242188
0.5105000000000001	-0.0	-0.0	-0.0	-0.0	-0.0	-0.0	6.441200733184815	5.783185005187988	-574.8401489257812	-0.0	-0.0	-0.0	-0.0	-0.0	-0.0	160840.8125	-25908.0078125	1226.1419677734375
0.511	-0.0	-0.0	-0.0	-0.0	-0.0	-0.0	7.717838287353516	5.641146659851074	-569.5440673828125	-0.0	-0.0	-0.0	-0.0	-0.0	-0.0	158608.875	-25707.34765625	1557.1373291015625
0.5115000000000001	-0.0	-0.0	-0.0	-0.0	-0.0	-0.0	8.430130958557129	5.188250541687012	-561.041748046875	-0.0	-0.0	-0.0	-0.0	-0.0	-0.0	156853.84375	-25315.412109375	1968.956787109375
0.512	-0.0	-0.0	-0.0	-0.0	-0.0	-0.0	9.880950927734377	4.789884567260742	-554.3187255859375	-0.0	-0.0	-0.0	-0.0	-0.0	-0.0	154790.6875	-24981.66796875	2392.75439453125
0.5125	-0.0	-0.0	-0.0	-0.0	-0.0	-0.0	10.900145530700684	4.040335178375244	-546.4222412109375	-0.0	-0.0	-0.0	-0.0	-0.0	-0.0	152622.84375	-24396.279296875	2704.433837890625
0.513	-0.0	-0.0	-0.0	-0.0	-0.0	-0.0	11.521198272705078	3.8089869022369385	-540.3544311523438	-0.0	-0.0	-0.0	-0.0	-0.0	-0.0	150354.390625	-23999.701171875	2916.2373046875
0.5135	-0.0	-0.0	-0.0	-0.0	-0.0	-0.0	12.297378540039062	3.42236328125	-532.6738891601562	-0.0	-0.0	-0.0	-0.0	-0.0	-0.0	148034.84375	-23020.98046875	3272.659423828125
0.514	-0.0	-0.0	-0.0	-0.0	-0.0	-0.0	12.508220672607422	3.0692269802093506	-524.9490966796875	-0.0	-0.0	-0.0	-0.0	-0.0	-0.0	146439.84375	-22654.826171875	3428.440185546875
0.5145	-0.0	-0.0	-0.0	-0.0	-0.0	-0.0	12.563217163085938	2.561328887939453	-520.5418090820312	-0.0	-0.0	-0.0	-0.0	-0.0	-0.0	144665.921875	-22151.12109375	3398.642578125
0.515	-0.0	-0.0	-0.0	-0.0	-0.0	-0.0	12.852134704589844	2.0640416145324707	-515.4818115234375	-0.0	-0.0	-0.0	-0.0	-0.0	-0.0	143394.875	-21678.21875	3421.029541015625
0.5155	-0.0	-0.0	-0.0	-0.0	-0.0	-0.0	12.852211952209473	1.6997201442718506	-512.2481689453125	-0.0	-0.0	-0.0	-0.0	-0.0	-0.0	142669.328125	-21359.66015625	3569.25732421875
0.516	-0.0	-0.0	-0.0	-0.0	-0.0	-0.0	12.34158706665039	1.999176859855652	-510.9362182617188	-0.0	-0.0	-0.0	-0.0	-0.0	-0.0	141941.734375	-21162.736328125	3443.099365234375
